<svg xmlns="http://www.w3.org/2000/svg" width="1040" height="700" viewBox="0 0 1040 700"><rect width="1040" height="700" fill="#f6f8f6"/><text x="32" y="42" font-family="Inter, Arial, sans-serif" font-size="24px" font-weight="700" fill="#171917" text-anchor="start" letter-spacing="0px">Interaction examples</text><text x="32" y="68" font-family="Inter, Arial, sans-serif" font-size="13px" font-weight="400" fill="#64706a" text-anchor="start" letter-spacing="0px">Rendered state inventory for business-first controls and truthful data states.</text><text x="32" y="88" font-family="Inter, Arial, sans-serif" font-size="11px" font-weight="700" fill="#8b958f" text-anchor="start" letter-spacing="0px">Default</text><rect x="32" y="102" width="150" height="34" rx="7" fill="#171917" stroke="#171917" stroke-width="1"/><g transform="translate(44 111)" fill="none" stroke="#ffffff" stroke-width="1.8" stroke-linecap="round" stroke-linejoin="round"><svg width="15" height="15" viewBox="0 0 24 24"><path d="M5 12h14"/><path d="m13 6 6 6-6 6"/></svg></g><text x="66" y="124" font-family="Inter, Arial, sans-serif" font-size="12px" font-weight="600" fill="#ffffff" text-anchor="start" letter-spacing="0px">Review evidence</text><text x="208" y="88" font-family="Inter, Arial, sans-serif" font-size="11px" font-weight="700" fill="#8b958f" text-anchor="start" letter-spacing="0px">Hover</text><rect x="208" y="102" width="150" height="34" rx="7" fill="#e7f6ec" stroke="#b7ddc4" stroke-width="1"/><g transform="translate(220 111)" fill="none" stroke="#146c37" stroke-width="1.8" stroke-linecap="round" stroke-linejoin="round"><svg width="15" height="15" viewBox="0 0 24 24"><path d="M5 12h14"/><path d="m13 6 6 6-6 6"/></svg></g><text x="242" y="124" font-family="Inter, Arial, sans-serif" font-size="12px" font-weight="600" fill="#146c37" text-anchor="start" letter-spacing="0px">Review evidence</text><text x="392" y="88" font-family="Inter, Arial, sans-serif" font-size="11px" font-weight="700" fill="#8b958f" text-anchor="start" letter-spacing="0px">Focus-visible</text><rect x="392" y="100" width="160" height="38" rx="8" fill="#ffffff" stroke="#4169a5" stroke-width="3"/><rect x="397" y="105" width="150" height="28" rx="5" fill="none" stroke="#bcd0f0"/><text x="408" y="124" font-family="Inter" font-size="12" font-weight="600" fill="#171917">Review evidence</text><text x="568" y="88" font-family="Inter, Arial, sans-serif" font-size="11px" font-weight="700" fill="#8b958f" text-anchor="start" letter-spacing="0px">Pressed</text><rect x="568" y="102" width="150" height="34" rx="7" fill="#0e522a"/><text x="583" y="124" font-family="Inter" font-size="12" font-weight="600" fill="white">Review evidence</text><text x="734" y="88" font-family="Inter, Arial, sans-serif" font-size="11px" font-weight="700" fill="#8b958f" text-anchor="start" letter-spacing="0px">Disabled</text><rect x="734" y="102" width="150" height="34" rx="7" fill="#f2f4f2" stroke="#dfe6e1" stroke-width="1"/><g transform="translate(746 111)" fill="none" stroke="#a2aaa5" stroke-width="1.8" stroke-linecap="round" stroke-linejoin="round"><svg width="15" height="15" viewBox="0 0 24 24"><path d="M5 12h14"/><path d="m13 6 6 6-6 6"/></svg></g><text x="768" y="124" font-family="Inter, Arial, sans-serif" font-size="12px" font-weight="600" fill="#a2aaa5" text-anchor="start" letter-spacing="0px">Review evidence</text><rect x="32" y="188" width="185" height="128" rx="10" fill="#f3f5f3" stroke="#dfe6e1" stroke-width="1"/><g transform="translate(52 213)" fill="none" stroke="#64706a" stroke-width="1.8" stroke-linecap="round" stroke-linejoin="round"><svg width="18" height="18" viewBox="0 0 24 24"><path d="M20 11a8 8 0 1 0 1 4"/><path d="M20 5v6h-6"/></svg></g><text x="82" y="226" font-family="Inter, Arial, sans-serif" font-size="13px" font-weight="650" fill="#171917" text-anchor="start" letter-spacing="0px">Loading trace evidence</text><text x="52" y="258" font-family="Inter, Arial, sans-serif" font-size="11px" font-weight="400" fill="#64706a" text-anchor="start" letter-spacing="0px">Keep the previous trace hidden.</text><rect x="237" y="188" width="185" height="128" rx="10" fill="#fff0ef" stroke="#efc3bf" stroke-width="1"/><g transform="translate(257 213)" fill="none" stroke="#b54b4b" stroke-width="1.8" stroke-linecap="round" stroke-linejoin="round"><svg width="18" height="18" viewBox="0 0 24 24"><path d="M20 11a8 8 0 1 0 1 4"/><path d="M20 5v6h-6"/></svg></g><text x="287" y="226" font-family="Inter, Arial, sans-serif" font-size="13px" font-weight="650" fill="#171917" text-anchor="start" letter-spacing="0px">Could not load evidence</text><rect x="257" y="254" width="92" height="34" rx="7" fill="#ffffff" stroke="#cdd7d1" stroke-width="1"/><g transform="translate(269 263)" fill="none" stroke="#34413a" stroke-width="1.8" stroke-linecap="round" stroke-linejoin="round"><svg width="15" height="15" viewBox="0 0 24 24"><path d="M20 11a8 8 0 1 0 1 4"/><path d="M20 5v6h-6"/></svg></g><text x="291" y="276" font-family="Inter, Arial, sans-serif" font-size="12px" font-weight="600" fill="#34413a" text-anchor="start" letter-spacing="0px">Retry</text><rect x="442" y="188" width="185" height="128" rx="10" fill="#ffffff" stroke="#dfe6e1" stroke-width="1"/><g transform="translate(462 213)" fill="none" stroke="#64706a" stroke-width="1.8" stroke-linecap="round" stroke-linejoin="round"><svg width="18" height="18" viewBox="0 0 24 24"><circle cx="12" cy="12" r="9"/><path d="M12 11v5"/><path d="M12 8h.01"/></svg></g><text x="492" y="226" font-family="Inter, Arial, sans-serif" font-size="13px" font-weight="650" fill="#171917" text-anchor="start" letter-spacing="0px">Threshold</text><rect x="460" y="247" width="142" height="44" rx="6" fill="#171917" stroke="#171917" stroke-width="1"/><text x="472" y="274" font-family="Inter, Arial, sans-serif" font-size="11px" font-weight="600" fill="#ffffff" text-anchor="start" letter-spacing="0px">Minimum eligible calls</text><rect x="647" y="188" width="185" height="128" rx="10" fill="#ffffff" stroke="#dfe6e1" stroke-width="1"/><g transform="translate(667 213)" fill="none" stroke="#64706a" stroke-width="1.8" stroke-linecap="round" stroke-linejoin="round"><svg width="18" height="18" viewBox="0 0 24 24"><rect x="3" y="6" width="18" height="12" rx="2"/><path d="M7 10h.01M11 10h.01M15 10h.01M7 14h10"/></svg></g><text x="697" y="226" font-family="Inter, Arial, sans-serif" font-size="13px" font-weight="650" fill="#171917" text-anchor="start" letter-spacing="0px">Keyboard path</text><text x="667" y="258" font-family="Inter, Arial, sans-serif" font-size="11px" font-weight="400" fill="#64706a" text-anchor="start" letter-spacing="0px">Tab: source &gt; range &gt; action</text><rect x="32" y="344" width="185" height="128" rx="10" fill="#e7f6ec" stroke="#b7ddc4" stroke-width="1"/><g transform="translate(52 369)" fill="none" stroke="#146c37" stroke-width="1.8" stroke-linecap="round" stroke-linejoin="round"><svg width="18" height="18" viewBox="0 0 24 24"><path d="m5 12 4 4L19 6"/></svg></g><text x="82" y="382" font-family="Inter, Arial, sans-serif" font-size="13px" font-weight="650" fill="#171917" text-anchor="start" letter-spacing="0px">Outcome saved</text><text x="52" y="414" font-family="Inter, Arial, sans-serif" font-size="11px" font-weight="400" fill="#64706a" text-anchor="start" letter-spacing="0px">Explicit event received.</text><rect x="237" y="344" width="185" height="128" rx="10" fill="#fff0ef" stroke="#efc3bf" stroke-width="1"/><g transform="translate(257 369)" fill="none" stroke="#b54b4b" stroke-width="1.8" stroke-linecap="round" stroke-linejoin="round"><svg width="18" height="18" viewBox="0 0 24 24"><path d="M10.3 3.2 2.4 17a2 2 0 0 0 1.7 3h15.8a2 2 0 0 0 1.7-3L13.7 3.2a2 2 0 0 0-3.4 0Z"/><path d="M12 9v4"/><path d="M12 17h.01"/></svg></g><text x="287" y="382" font-family="Inter, Arial, sans-serif" font-size="13px" font-weight="650" fill="#171917" text-anchor="start" letter-spacing="0px">Live data error</text><text x="257" y="414" font-family="Inter, Arial, sans-serif" font-size="11px" font-weight="400" fill="#64706a" text-anchor="start" letter-spacing="0px">Retry without sample fallback.</text><rect x="442" y="344" width="185" height="128" rx="10" fill="#ffffff" stroke="#dfe6e1" stroke-width="1"/><g transform="translate(462 369)" fill="none" stroke="#8b958f" stroke-width="1.8" stroke-linecap="round" stroke-linejoin="round"><svg width="18" height="18" viewBox="0 0 24 24"><circle cx="11" cy="11" r="7"/><path d="m20 20-4-4"/></svg></g><text x="492" y="382" font-family="Inter, Arial, sans-serif" font-size="13px" font-weight="650" fill="#171917" text-anchor="start" letter-spacing="0px">No live data</text><text x="462" y="414" font-family="Inter, Arial, sans-serif" font-size="11px" font-weight="400" fill="#64706a" text-anchor="start" letter-spacing="0px">No events in this period.</text><rect x="647" y="344" width="185" height="128" rx="10" fill="#edf3ff" stroke="#c5d6f4" stroke-width="1"/><g transform="translate(667 369)" fill="none" stroke="#4169a5" stroke-width="1.8" stroke-linecap="round" stroke-linejoin="round"><svg width="18" height="18" viewBox="0 0 24 24"><circle cx="12" cy="12" r="9"/><path d="M12 11v5"/><path d="M12 8h.01"/></svg></g><text x="697" y="382" font-family="Inter, Arial, sans-serif" font-size="13px" font-weight="650" fill="#171917" text-anchor="start" letter-spacing="0px">Need more data</text><text x="667" y="414" font-family="Inter, Arial, sans-serif" font-size="11px" font-weight="400" fill="#64706a" text-anchor="start" letter-spacing="0px">Minimum 30 calls; saw 7.</text><rect x="32" y="512" width="800" height="90" rx="10" fill="#ffffff" stroke="#dfe6e1" stroke-width="1"/><g transform="translate(54 536)" fill="none" stroke="#146c37" stroke-width="1.8" stroke-linecap="round" stroke-linejoin="round"><svg width="17" height="17" viewBox="0 0 24 24"><path d="M16 21v-2a4 4 0 0 0-4-4H6a4 4 0 0 0-4 4v2"/><circle cx="9" cy="7" r="4"/><path d="M22 21v-2a4 4 0 0 0-3-3.87"/><path d="M16 3.13a4 4 0 0 1 0 7.75"/></svg></g><text x="84" y="540" font-family="Inter, Arial, sans-serif" font-size="13px" font-weight="650" fill="#171917" text-anchor="start" letter-spacing="0px">Live data</text><text x="84" y="563" font-family="Inter, Arial, sans-serif" font-size="11px" font-weight="400" fill="#64706a" text-anchor="start" letter-spacing="0px">Source selected explicitly. No freshness or health claim is implied.</text><rect x="420" y="526" width="1" height="42" rx="0" fill="#dfe6e1" stroke="#dfe6e1" stroke-width="1"/><g transform="translate(448 536)" fill="none" stroke="#4169a5" stroke-width="1.8" stroke-linecap="round" stroke-linejoin="round"><svg width="17" height="17" viewBox="0 0 24 24"><path d="M14 2H6a2 2 0 0 0-2 2v16a2 2 0 0 0 2 2h12a2 2 0 0 0 2-2V8Z"/><path d="M14 2v6h6"/><path d="M8 13h8"/><path d="M8 17h5"/></svg></g><text x="478" y="540" font-family="Inter, Arial, sans-serif" font-size="13px" font-weight="650" fill="#171917" text-anchor="start" letter-spacing="0px">Example data</text><text x="478" y="563" font-family="Inter, Arial, sans-serif" font-size="11px" font-weight="400" fill="#64706a" text-anchor="start" letter-spacing="0px">Selected explicitly. Example records are never substituted silently.</text></svg>
