<svg xmlns="http://www.w3.org/2000/svg" width="1280" height="760" viewBox="0 0 1280 760">
  <rect width="1280" height="760" fill="#f7f9f7"/>
  <rect x="0" y="0" width="224" height="760" fill="#fff" stroke="#d9e3dc"/>
  <text x="28" y="44" font-family="Arial, sans-serif" font-size="22" font-weight="700" fill="#14201a">trackmcp</text>
  <rect x="16" y="68" width="192" height="60" rx="10" fill="#fff" stroke="#d9e3dc"/>
  <text x="30" y="93" font-family="Arial, sans-serif" font-size="13" fill="#14201a">Acme MCP</text><text x="30" y="112" font-family="Arial, sans-serif" font-size="11" fill="#89968e">Production</text>
  <rect x="14" y="150" width="196" height="40" rx="8" fill="#14201a"/><text x="34" y="176" font-family="Arial, sans-serif" font-size="14" fill="#fff">▥  Overview</text>
  <g font-family="Arial, sans-serif" font-size="14" fill="#53645b"><text x="28" y="224" font-size="10" letter-spacing="2" fill="#89968e">UNDERSTAND</text><text x="34" y="258">◌  Adoption</text><text x="34" y="298">↝  Journeys</text><text x="34" y="338">◴  Quality</text><text x="34" y="378">△  Issues</text></g>
  <line x1="18" y1="412" x2="206" y2="412" stroke="#d9e3dc"/>
  <text x="28" y="442" font-family="Arial, sans-serif" font-size="10" letter-spacing="2" fill="#89968e">MORE</text>
  <g font-family="Arial, sans-serif" font-size="13" fill="#53645b"><text x="34" y="476">AI clients</text><text x="34" y="510">Capabilities</text><text x="34" y="544">Work completed</text><text x="34" y="578">Evidence</text><text x="34" y="612">Changes</text></g>
  <line x1="18" y1="642" x2="206" y2="642" stroke="#d9e3dc"/><text x="34" y="680" font-family="Arial, sans-serif" font-size="14" fill="#53645b">⚙  Setup</text><text x="34" y="720" font-family="Arial, sans-serif" font-size="12" fill="#89968e">demo@acme.example</text>
  <rect x="224" y="0" width="1056" height="760" fill="#f7f9f7"/>
  <text x="270" y="54" font-family="Arial, sans-serif" font-size="18" font-weight="700" fill="#14201a">Proposed rail: five business jobs, technical depth on demand</text>
  <rect x="270" y="104" width="860" height="116" rx="12" fill="#fff" stroke="#d9e3dc"/>
  <text x="300" y="140" font-family="Arial, sans-serif" font-size="14" font-weight="700" fill="#14201a">Primary jobs</text><text x="300" y="170" font-family="Arial, sans-serif" font-size="16" fill="#304038">Overview · Adoption · Journeys · Quality · Issues</text><text x="300" y="198" font-family="Arial, sans-serif" font-size="13" fill="#627169">Each label predicts the question the page answers.</text>
  <rect x="270" y="252" width="860" height="116" rx="12" fill="#fff" stroke="#d9e3dc"/>
  <text x="300" y="288" font-family="Arial, sans-serif" font-size="14" font-weight="700" fill="#14201a">Technical layer</text><text x="300" y="318" font-family="Arial, sans-serif" font-size="16" fill="#304038">AI clients · Capabilities · Work completed · Evidence · Changes</text><text x="300" y="346" font-family="Arial, sans-serif" font-size="13" fill="#627169">Keep precise terminology where it helps the next investigation.</text>
  <rect x="270" y="400" width="860" height="180" rx="12" fill="#e7f6ef" stroke="#a8d7bf"/>
  <text x="300" y="440" font-family="Arial, sans-serif" font-size="18" font-weight="700" fill="#155b42">Focal principle</text><text x="300" y="478" font-family="Arial, sans-serif" font-size="22" font-weight="700" fill="#14201a">Business answer first → evidence second</text><text x="300" y="514" font-family="Arial, sans-serif" font-size="14" fill="#304038">The rail helps a product owner start with meaning.</text><text x="300" y="540" font-family="Arial, sans-serif" font-size="14" fill="#304038">The More group lets an engineer reach exact protocol detail.</text>
</svg>
