<svg xmlns="http://www.w3.org/2000/svg" width="520" height="680" viewBox="0 0 520 680"><rect width="520" height="680" fill="#f6f8f6"/><rect x="24" y="22" width="300" height="636" rx="14" fill="#ffffff" stroke="#dfe6e1" stroke-width="1"/><g><rect x="48" y="48" width="28" height="28" rx="7" fill="#16a34a"/><g transform="translate(52 52) scale(0.625)" fill="none">
      <g stroke="#ffffff" stroke-width="3.4" stroke-linecap="round"><path d="M16 16 Q20.5 10 25 7"/><path d="M16 16 Q10 20.5 7 25"/><path d="M16 16 Q22.5 20 25 25"/></g>
      <g fill="#ffffff"><circle cx="6.6" cy="6.6" r="4.4"/><circle cx="7" cy="25" r="4"/><circle cx="25" cy="25" r="4"/></g>
      <circle cx="25" cy="7" r="4" fill="#16a34a"/><circle cx="16" cy="16" r="4.4" fill="#ffffff"/>
    </g>
      <text x="84" y="70" font-family="Satoshi, Inter, Arial, sans-serif" font-size="21" font-weight="600" letter-spacing="-1">track<tspan fill="#16a34a">mcp</tspan></text></g><text x="48" y="108" font-family="Inter, Arial, sans-serif" font-size="13px" font-weight="650" fill="#171917" text-anchor="start" letter-spacing="0px">QBO MCP</text><text x="48" y="129" font-family="Inter, Arial, sans-serif" font-size="11px" font-weight="400" fill="#8b958f" text-anchor="start" letter-spacing="0px">Production workspace</text><rect x="38" y="154" width="272" height="40" rx="8" fill="#171917" stroke="#171917" stroke-width="1"/><g transform="translate(56 166)" fill="none" stroke="#ffffff" stroke-width="1.8" stroke-linecap="round" stroke-linejoin="round"><svg width="17" height="17" viewBox="0 0 24 24"><path d="M4 20V4h16v16"/><path d="M8 17v-4"/><path d="M12 17V8"/><path d="M16 17v-6"/></svg></g><text x="84" y="179" font-family="Inter, Arial, sans-serif" font-size="13px" font-weight="600" fill="#ffffff" text-anchor="start" letter-spacing="0px">Overview</text><g transform="translate(56 216)" fill="none" stroke="#64706a" stroke-width="1.8" stroke-linecap="round" stroke-linejoin="round"><svg width="17" height="17" viewBox="0 0 24 24"><circle cx="6" cy="6" r="3"/><circle cx="18" cy="18" r="3"/><path d="M8.5 8.5 15.5 15.5"/><path d="M18 6h.01"/></svg></g><text x="84" y="229" font-family="Inter, Arial, sans-serif" font-size="13px" font-weight="500" fill="#46524b" text-anchor="start" letter-spacing="0px">Journeys</text><g transform="translate(56 266)" fill="none" stroke="#64706a" stroke-width="1.8" stroke-linecap="round" stroke-linejoin="round"><svg width="17" height="17" viewBox="0 0 24 24"><path d="M12 3 4 7v5c0 5 3.5 8.5 8 9 4.5-.5 8-4 8-9V7l-8-4Z"/><path d="m8.5 12 2.3 2.3 4.8-5"/></svg></g><text x="84" y="279" font-family="Inter, Arial, sans-serif" font-size="13px" font-weight="500" fill="#46524b" text-anchor="start" letter-spacing="0px">Quality</text><g transform="translate(56 316)" fill="none" stroke="#64706a" stroke-width="1.8" stroke-linecap="round" stroke-linejoin="round"><svg width="17" height="17" viewBox="0 0 24 24"><path d="M10.3 3.2 2.4 17a2 2 0 0 0 1.7 3h15.8a2 2 0 0 0 1.7-3L13.7 3.2a2 2 0 0 0-3.4 0Z"/><path d="M12 9v4"/><path d="M12 17h.01"/></svg></g><text x="84" y="329" font-family="Inter, Arial, sans-serif" font-size="13px" font-weight="500" fill="#46524b" text-anchor="start" letter-spacing="0px">Issues</text><text x="48" y="402" font-family="Inter, Arial, sans-serif" font-size="10px" font-weight="700" fill="#8b958f" text-anchor="start" letter-spacing="1.3px">MORE</text><g transform="translate(56 418)" fill="none" stroke="#64706a" stroke-width="1.8" stroke-linecap="round" stroke-linejoin="round"><svg width="17" height="17" viewBox="0 0 24 24"><path d="M16 21v-2a4 4 0 0 0-4-4H6a4 4 0 0 0-4 4v2"/><circle cx="9" cy="7" r="4"/><path d="M22 21v-2a4 4 0 0 0-3-3.87"/><path d="M16 3.13a4 4 0 0 1 0 7.75"/></svg></g><text x="84" y="431" font-family="Inter, Arial, sans-serif" font-size="13px" font-weight="500" fill="#46524b" text-anchor="start" letter-spacing="0px">AI clients</text><g transform="translate(56 468)" fill="none" stroke="#64706a" stroke-width="1.8" stroke-linecap="round" stroke-linejoin="round"><svg width="17" height="17" viewBox="0 0 24 24"><path d="M14 2H6a2 2 0 0 0-2 2v16a2 2 0 0 0 2 2h12a2 2 0 0 0 2-2V8Z"/><path d="M14 2v6h6"/><path d="M8 13h8"/><path d="M8 17h5"/></svg></g><text x="84" y="481" font-family="Inter, Arial, sans-serif" font-size="13px" font-weight="500" fill="#46524b" text-anchor="start" letter-spacing="0px">Evidence</text><g transform="translate(56 518)" fill="none" stroke="#64706a" stroke-width="1.8" stroke-linecap="round" stroke-linejoin="round"><svg width="17" height="17" viewBox="0 0 24 24"><path d="M12 15.5a3.5 3.5 0 1 0 0-7 3.5 3.5 0 0 0 0 7Z"/><path d="M19.4 15a1.7 1.7 0 0 0 .3 1.9l.1.1-1.8 1.8-.1-.1a1.7 1.7 0 0 0-1.9-.3 1.7 1.7 0 0 0-1 1.6v.2h-2.5V20a1.7 1.7 0 0 0-1-1.6 1.7 1.7 0 0 0-1.9.3l-.1.1-1.8-1.8.1-.1A1.7 1.7 0 0 0 8 15a1.7 1.7 0 0 0-1.6-1H6v-2.5h.4A1.7 1.7 0 0 0 8 10a1.7 1.7 0 0 0-.3-1.9l-.1-.1 1.8-1.8.1.1a1.7 1.7 0 0 0 1.9.3 1.7 1.7 0 0 0 1-1.6v-.2h2.5V5a1.7 1.7 0 0 0 1 1.6 1.7 1.7 0 0 0 1.9-.3l.1-.1 1.8 1.8-.1.1A1.7 1.7 0 0 0 19.4 10a1.7 1.7 0 0 0 1.6 1h.4v2.5H21a1.7 1.7 0 0 0-1.6 1.5Z"/></svg></g><text x="84" y="531" font-family="Inter, Arial, sans-serif" font-size="13px" font-weight="500" fill="#46524b" text-anchor="start" letter-spacing="0px">Setup</text><text x="48" y="602" font-family="Inter, Arial, sans-serif" font-size="11px" font-weight="400" fill="#64706a" text-anchor="start" letter-spacing="0px">Technical evidence stays one click away.</text></svg>
